<svg width="79" height="80" viewBox="0 0 79 80" fill="none" xmlns="http://www.w3.org/2000/svg">
<path fill-rule="evenodd" clip-rule="evenodd" d="M39.2514 0.358461C39.7733 -0.00930268 40.4414 -0.100341 41.0426 0.114384L54.7849 5.02236C55.5771 5.30529 56.101 6.0615 56.0876 6.90261C56.0741 7.74372 55.5262 8.48277 54.7254 8.74019L42.3455 12.7194V16.1963H43.8179C44.9021 16.1963 45.7811 17.0753 45.7811 18.1595V21.1043H47.7443V18.1595C47.7443 17.0753 48.6232 16.1963 49.7074 16.1963H56.0878C57.0366 16.1963 57.8496 16.8749 58.0193 17.8083L60.671 32.3926H61.4866C62.4333 32.3926 63.2451 33.0682 63.4171 33.9992L66.2279 49.2139C66.4249 50.2801 65.7202 51.3041 64.654 51.5011C63.5878 51.698 62.5638 50.9934 62.3669 49.9272L59.8529 36.319H54.1246V40.7362C54.1246 41.8204 53.2457 42.6994 52.1614 42.6994H44.3087C43.2244 42.6994 42.3455 41.8204 42.3455 40.7362V36.319H37.4375V40.7362C37.4375 41.8204 36.5586 42.6994 35.4743 42.6994H27.6216C26.5373 42.6994 25.6584 41.8204 25.6584 40.7362V36.319H19.908L18.7594 42.1003C18.5482 43.1638 17.5148 43.8546 16.4513 43.6434C15.3879 43.4321 14.6971 42.3987 14.9083 41.3353L16.3708 33.9733C16.5534 33.0545 17.3596 32.3926 18.2964 32.3926H19.112L21.7637 17.8083C21.9334 16.8749 22.7464 16.1963 23.6952 16.1963H30.5663C31.6506 16.1963 32.5295 17.0753 32.5295 18.1595V21.1043H34.4927V18.1595C34.4927 17.0753 35.3717 16.1963 36.4559 16.1963H38.4191V1.9632C38.4191 1.32478 38.7295 0.726224 39.2514 0.358461ZM38.4191 20.1227V23.0675C38.4191 24.1517 37.5402 25.0307 36.4559 25.0307H30.5663C29.4821 25.0307 28.6032 24.1517 28.6032 23.0675V20.1227H25.3336L23.1027 32.3926H27.6216C28.7058 32.3926 29.5847 33.2716 29.5847 34.3558V38.773H33.5111V34.3558C33.5111 33.2716 34.3901 32.3926 35.4743 32.3926H44.3087C45.3929 32.3926 46.2719 33.2716 46.2719 34.3558V38.773H50.1982V34.3558C50.1982 33.2716 51.0772 32.3926 52.1614 32.3926H56.6803L54.4494 20.1227H51.6706V23.0675C51.6706 24.1517 50.7917 25.0307 49.7074 25.0307H43.8179C42.7336 25.0307 41.8547 24.1517 41.8547 23.0675V20.1227H38.4191ZM42.3455 8.59522L48.0136 6.77331L42.3455 4.74898V8.59522ZM7.0367 39.4336C8.07726 40.1605 8.74852 41.28 9.26466 42.3122C9.30664 42.3962 9.34255 42.4831 9.3721 42.5722L11.2908 48.3574C11.5819 49.0202 11.84 50.12 11.6755 51.2715C11.5808 51.9339 11.3362 52.6784 10.8117 53.3555C10.6517 53.5621 10.4728 53.7531 10.2759 53.9276L10.9279 56.3185C11.1797 56.3155 11.4398 56.32 11.7027 56.3341C11.8927 56.3444 12.0981 56.3603 12.3134 56.385L13.7728 47.7702C13.9539 46.7012 14.9674 45.9815 16.0364 46.1626C17.1054 46.3437 17.8252 47.3571 17.6441 48.4261L15.987 58.2074C16.6529 58.9911 17.282 60.0785 17.7729 61.4262C18.3577 63.0315 18.7766 65.0811 18.8283 67.6145C22.2249 66.9507 25.8319 66.6374 29.2864 66.7756C29.2787 66.4436 29.2696 66.1018 29.2603 65.7499L29.2564 65.6036C29.2301 64.6104 29.2033 63.5488 29.2044 62.4722C29.2064 60.3332 29.3166 58.0302 29.7974 55.9053C30.2778 53.7823 31.1648 51.6714 32.8471 50.0903C34.5705 48.4705 36.9135 47.6074 39.8915 47.6074C42.7743 47.6074 45.0597 48.486 46.7783 50.0406C48.4563 51.5586 49.4348 53.5763 50.0203 55.5979C50.9326 58.7474 50.9959 62.3406 50.9833 64.9825C56.7484 65.4508 61.6668 66.7143 65.7232 68.3411L63.8345 57.2624C63.6523 56.1936 64.371 55.1795 65.4399 54.9972C66.5087 54.815 67.5228 55.5338 67.7051 56.6026L70.0526 70.3725C73.8582 72.4449 76.6074 74.7869 78.2313 76.8067C78.7047 77.3955 78.7982 78.2038 78.4718 78.8851C78.1453 79.5665 77.4568 80 76.7013 80H4.55407C3.97194 80 3.41983 79.7417 3.04683 79.2947C2.67383 78.8478 2.51842 78.2584 2.62255 77.6856C2.92009 76.0492 3.90006 74.6556 5.11679 73.5189C5.76934 72.9092 6.52426 72.3406 7.35525 71.8136C5.90323 70.1444 4.47936 68.0396 3.82015 65.8457C3.33177 64.2203 3.21333 62.3693 4.0265 60.6094C4.63957 59.2826 5.69418 58.1972 7.1403 57.3531L6.54071 55.1546C5.61429 55.0936 4.79205 54.77 4.11204 54.2811C3.05874 53.5237 2.44519 52.448 2.19053 51.6203C2.01149 51.0384 1.79159 50.388 1.56087 49.7055C1.04399 48.1767 0.472782 46.4871 0.184889 45.0476C-0.0451698 43.8973 -0.104368 42.6667 0.289675 41.537C0.717899 40.3092 1.61067 39.4066 2.84319 38.9135C2.92634 38.8802 3.01167 38.8527 3.09858 38.8311C4.50568 38.4811 5.85748 38.6098 7.0367 39.4336ZM9.9875 60.3118C8.48692 60.9512 7.85878 61.6763 7.59079 62.2563C7.30458 62.8757 7.26845 63.6774 7.58046 64.7158C8.11751 66.5032 9.52926 68.4473 10.9702 69.9518C12.193 69.4357 13.5143 68.9705 14.9035 68.5649C14.9501 65.9831 14.5623 64.0839 14.0837 62.7701C13.5524 61.3115 12.946 60.6621 12.7634 60.5127C12.6016 60.4205 12.1875 60.2924 11.4913 60.2548C10.9276 60.2244 10.3699 60.2626 9.9875 60.3118ZM47.0545 64.7934C47.0608 62.239 46.9938 59.2618 46.249 56.6902C45.7835 55.0831 45.0968 53.8141 44.1443 52.9524C43.2323 52.1275 41.9216 51.5337 39.8915 51.5337C37.7103 51.5337 36.3962 52.143 35.5361 52.9514C34.6348 53.7985 34.0117 55.0716 33.627 56.7719C33.2427 58.4703 33.1327 60.4298 33.1307 62.4759C33.1298 63.492 33.1551 64.5036 33.1814 65.4998L33.1858 65.6644C33.1887 65.7753 33.1916 65.8861 33.1945 65.9967C38.2067 65.0814 42.8282 64.7263 47.0545 64.7934ZM40.0808 68.9989C43.2311 68.7015 46.1748 68.6467 48.9117 68.7817C56.7436 69.1681 62.9032 71.1106 67.3857 73.4041C69.0794 74.2707 70.525 75.1828 71.7272 76.0736H51.8998C47.9491 72.7737 43.9777 70.4834 40.0808 68.9989ZM45.3199 76.0736C39.8037 72.4829 34.4277 70.9632 29.4862 70.7149C23.0961 70.3939 16.087 71.814 11.4047 74.0606C10.0653 74.7032 8.97196 75.3872 8.15296 76.0736H45.3199ZM4.19382 42.6086C4.12396 42.6459 4.08951 42.6771 4.07374 42.6932C4.05325 42.7142 4.02518 42.7493 3.99701 42.8301C3.92872 43.0258 3.87244 43.4647 4.03502 44.2776C4.2742 45.4735 4.69914 46.7245 5.16703 48.1019C5.42074 48.8489 5.68708 49.6329 5.94328 50.4656C5.99064 50.6195 6.16056 50.918 6.40419 51.0932C6.50544 51.166 6.60866 51.2105 6.72643 51.2287C6.84219 51.2467 7.0467 51.2511 7.36886 51.1437C7.62448 51.0585 7.69369 50.9691 7.70755 50.9512C7.73109 50.9208 7.76866 50.8554 7.78854 50.7162C7.80946 50.5698 7.80262 50.3906 7.7698 50.2101C7.74457 50.0713 7.71382 49.9839 7.70481 49.9582C7.7012 49.948 7.70107 49.9476 7.70613 49.9577C7.66415 49.8737 7.62824 49.7869 7.59869 49.6978L5.69129 43.9467C5.25983 43.1061 4.96856 42.7784 4.7881 42.6523C4.72494 42.6082 4.67709 42.5901 4.61064 42.5809C4.54344 42.5715 4.41314 42.5662 4.19382 42.6086Z" fill="#EB2F96"/>
</svg>
